<svg xmlns="http://www.w3.org/2000/svg" width="82" height="67" viewBox="0 0 82 67">
  <path fill="#EAF0F2" fill-rule="evenodd" d="M1107.72949,2397.25684 C1107.72949,2402.62796 1106.54949,2407.53107 1104.18945,2411.96631 C1101.82942,2416.40155 1099.06252,2420.24673 1095.88867,2423.50195 C1092.63345,2426.83856 1089.05275,2429.82925 1085.14648,2432.47412 C1081.24021,2435.11899 1078.10711,2437.05175 1075.74707,2438.27246 L1071.59668,2431.07031 C1074.93328,2429.11718 1078.12743,2427.10304 1081.1792,2425.02783 C1084.23097,2422.95263 1086.57063,2420.97918 1088.19824,2419.10742 C1090.39552,2416.666 1092.14518,2414.1229 1093.44727,2411.47803 C1094.74936,2408.83316 1095.56315,2405.35419 1095.88867,2401.04102 L1090.0293,2401.04102 C1084.90232,2401.04102 1080.91473,2399.73895 1078.06641,2397.13477 C1075.21808,2394.53059 1073.79395,2390.9092 1073.79395,2386.27051 C1073.79395,2382.9339 1075.09602,2379.78045 1077.7002,2376.81006 C1080.30437,2373.83967 1083.84438,2372.35449 1088.32031,2372.35449 C1095.23766,2372.35449 1100.20181,2374.65346 1103.21289,2379.25146 C1106.22397,2383.84947 1107.72949,2389.8512 1107.72949,2397.25684 Z M1152.89551,2397.25684 C1152.89551,2402.62796 1151.71551,2407.53107 1149.35547,2411.96631 C1146.99543,2416.40155 1144.22853,2420.24673 1141.05469,2423.50195 C1137.79946,2426.83856 1134.21877,2429.82925 1130.3125,2432.47412 C1126.40623,2435.11899 1123.27312,2437.05175 1120.91309,2438.27246 L1116.7627,2431.07031 C1120.0993,2429.11718 1123.29344,2427.10304 1126.34521,2425.02783 C1129.39699,2422.95263 1131.73665,2420.97918 1133.36426,2419.10742 C1135.56153,2416.666 1137.31119,2414.1229 1138.61328,2411.47803 C1139.91537,2408.83316 1140.72917,2405.35419 1141.05469,2401.04102 L1135.19531,2401.04102 C1130.06833,2401.04102 1126.08074,2399.73895 1123.23242,2397.13477 C1120.3841,2394.53059 1118.95996,2390.9092 1118.95996,2386.27051 C1118.95996,2382.9339 1120.26203,2379.78045 1122.86621,2376.81006 C1125.47039,2373.83967 1129.01039,2372.35449 1133.48633,2372.35449 C1140.40368,2372.35449 1145.36782,2374.65346 1148.37891,2379.25146 C1151.38999,2383.84947 1152.89551,2389.8512 1152.89551,2397.25684 Z" transform="translate(-1071 -2372)"/>
</svg>
