<svg xmlns="http://www.w3.org/2000/svg" width="82" height="67" viewBox="0 0 82 67">
  <path fill="#EAF0F2" fill-rule="evenodd" d="M147.776367,1925.04492 C143.951478,1927.2422 140.859061,1929.13427 138.499023,1930.72119 C136.138986,1932.30811 133.738293,1934.40363 131.296875,1937.00781 C129.018218,1939.44923 127.268561,1942.01268 126.047852,1944.69824 C124.827142,1947.3838 123.972659,1950.84243 123.484375,1955.07422 L129.34375,1955.07422 C134.389348,1955.07422 138.356594,1956.31525 141.245605,1958.79736 C144.134617,1961.27947 145.579102,1964.9212 145.579102,1969.72266 C145.579102,1973.14064 144.297376,1976.33478 141.733887,1979.30518 C139.170397,1982.27557 135.650739,1983.76074 131.174805,1983.76074 C124.176072,1983.76074 119.171239,1981.46177 116.160156,1976.86377 C113.149073,1972.26576 111.643555,1966.22334 111.643555,1958.73633 C111.643555,1953.44659 112.782866,1948.62486 115.061523,1944.271 C117.340181,1939.91713 120.10708,1936.03127 123.362305,1932.61328 C126.69891,1929.11391 130.238914,1926.14357 133.982422,1923.70215 C137.72593,1921.26073 140.859037,1919.26693 143.381836,1917.7207 L147.776367,1925.04492 Z M192.942383,1925.04492 C189.117494,1927.2422 186.025077,1929.13427 183.665039,1930.72119 C181.305001,1932.30811 178.904309,1934.40363 176.462891,1937.00781 C174.102853,1939.53061 172.332851,1942.11441 171.152832,1944.75928 C169.972813,1947.40415 169.138674,1950.84243 168.650391,1955.07422 L174.509766,1955.07422 C179.555364,1955.07422 183.522609,1956.31525 186.411621,1958.79736 C189.300633,1961.27947 190.745117,1964.9212 190.745117,1969.72266 C190.745117,1973.14064 189.463392,1976.33478 186.899902,1979.30518 C184.336413,1982.27557 180.816754,1983.76074 176.34082,1983.76074 C169.342087,1983.76074 164.337255,1981.46177 161.326172,1976.86377 C158.315089,1972.26576 156.80957,1966.22334 156.80957,1958.73633 C156.80957,1953.44659 157.948882,1948.62486 160.227539,1944.271 C162.506196,1939.91713 165.273096,1936.03127 168.52832,1932.61328 C171.864926,1929.11391 175.404929,1926.14357 179.148438,1923.70215 C182.891946,1921.26073 186.025052,1919.26693 188.547852,1917.7207 L192.942383,1925.04492 Z" transform="translate(-111 -1917)"/>
</svg>
